<svg width="253" height="167" viewBox="0 0 253 167" fill="none" xmlns="http://www.w3.org/2000/svg">
<path d="M66 1.87163C61.3333 2.9383 54.2667 5.20497 50.2667 7.07163C42.1333 10.805 27.0667 20.9383 27.0667 22.6716C27.0667 23.3383 45.2 23.8716 67.2 23.8716H107.467L112.267 19.4716C115.067 17.205 119.067 13.8716 121.2 12.405L125.067 9.60497L119.733 7.3383C102.533 0.00496817 83.4667 -1.8617 66 1.87163Z" fill="white"/>
<path d="M148.933 1.87166C132 6.53832 132.267 7.20499 151.2 6.67166C176 6.00499 195.067 10.1383 208.4 19.205C212 21.605 218.133 25.0717 222.133 26.9383C226 28.6717 231.467 32.1383 234.4 34.6717C242.533 41.8717 237.867 34.5383 227.867 24.6717C218.267 15.205 206 7.60499 193.733 3.73832C182.4 0.00498962 158.8 -0.928344 148.933 1.87166Z" fill="white"/>
<path d="M122.133 23.8717C112.133 24.405 107.867 25.0717 106.4 26.6717C104.4 28.6717 106.133 28.9383 127.333 29.605C151.867 30.405 166.267 32.805 185.333 39.205C207.467 46.6717 230.267 59.205 231.733 64.805C232.133 66.5383 232.933 67.8717 233.6 67.8717C236 67.8717 245.867 75.4717 249.2 79.8717L252.667 84.5383L251.867 75.205C250.933 64.9383 248.133 54.405 245.067 49.605C243.867 47.8717 239.333 44.6717 234.8 42.405C207.867 28.805 164.933 21.7383 122.133 23.8717Z" fill="white"/>
<path d="M16 34.805C11.6 40.805 6.93334 50.005 8.00001 51.0716C8.53334 51.4716 26.9333 51.8716 49.2 51.8716H89.4667L90.9333 47.7383C91.7333 45.605 94.1333 41.0716 96.4 37.7383C98.5333 34.405 100.4 31.4716 100.4 31.0716C100.4 30.805 82.1333 30.5383 59.8667 30.5383H19.2L16 34.805Z" fill="white"/>
<path d="M93.8667 53.0717C91.3333 53.4717 89.0667 54.5383 88.8 55.3383C88.4 56.405 94.5333 57.205 108 57.7383C146.533 59.605 182 69.4716 208.133 85.4716C222.133 94.005 227.067 98.5383 227.067 102.538C227.067 105.072 228.533 107.338 232.533 110.405C235.467 112.938 239.067 116.538 240.267 118.805L242.667 122.672L245.333 116.272C248.8 108.138 250.667 102.005 251.733 95.0717L252.533 89.605L234 80.1383C198.667 62.2717 165.067 54.5383 114.4 52.805C105.6 52.405 96.4 52.5383 93.8667 53.0717Z" fill="white"/>
<path d="M3.06667 62.005C2.26667 63.8716 1.33333 68.6716 0.933333 72.6716L0 79.8716H82.6667L83.6 73.0716C84.1333 69.205 84.9333 64.405 85.3333 62.405L86.1333 58.5383H4.4L3.06667 62.005Z" fill="white"/>
<path d="M84.4 83.0716C84.4 84.405 86.5333 85.3383 90.8 85.8716C122.8 89.7383 136.667 92.9383 157.067 101.072C179.2 109.872 208.4 128.138 208.4 133.072C208.4 134.405 211.2 138.272 214.667 141.738C220.667 147.738 220.933 147.872 223.6 145.605C230.667 139.605 240.8 126.938 239.867 125.472C238.933 123.872 223.6 114.805 212.8 109.338C201.6 103.738 186 97.605 173.067 93.7383C142 84.2716 84.4 77.3383 84.4 83.0716Z" fill="white"/>
<path d="M1.06666 94.1383C1.6 98.2716 2.53333 103.072 3.2 104.805L4.4 107.872H45.0667C70.8 107.872 85.7333 107.338 85.7333 106.538C85.7333 105.872 85.0667 101.072 84.1333 95.8716L82.5333 86.5383H0.133331L1.06666 94.1383Z" fill="white"/>
<path d="M88.8 111.072C89.3333 112.405 89.7333 113.738 89.7333 114.005C89.7333 114.272 91.0667 114.538 92.8 114.538C97.7333 114.538 115.067 118.538 125.733 122.005C148 129.472 178.933 148.138 178 153.605C177.733 154.805 178.933 157.738 180.667 160.005C183.467 163.738 184.267 164.005 189.333 163.338C195.333 162.538 213.733 154.005 213.733 152.005C213.733 150.272 188.667 135.738 172.4 128.005C151.2 118.005 126.4 111.738 99.3333 109.605C88.8 108.805 88 108.938 88.8 111.072Z" fill="white"/>
<path d="M7.06667 115.205C7.06667 116.672 11.4667 124.538 15.3333 130.138L19.2 135.872H59.7333C82.1333 135.872 100.4 135.605 100.4 135.205C100.4 134.938 98.9333 132.538 97.0667 129.872C95.3333 127.072 92.8 122.672 91.4667 119.738L89.2 114.538H48.1333C25.6 114.538 7.06667 114.805 7.06667 115.205Z" fill="white"/>
<path d="M106.267 139.738C107.733 141.338 110.4 142.538 112.667 142.538C118.4 142.538 136.4 148.938 141.467 152.672C143.733 154.538 145.733 156.938 145.733 158.138C145.733 159.738 144.667 160.005 139.467 159.338C133.2 158.538 133.067 158.538 137.2 160.405C148.133 165.338 174.667 168.672 173.467 164.805C172.4 161.872 159.067 153.472 147.867 148.805C137.467 144.405 121.333 139.872 109.067 137.738L103.733 136.805L106.267 139.738Z" fill="white"/>
<path d="M27.0667 143.472C27.3333 146.672 47.4667 158.672 59.0667 162.538C77.2 168.538 97.8667 167.472 117.467 159.738C123.6 157.205 126.533 154.538 123.067 154.538C122.4 154.538 118.533 151.872 114.533 148.538L107.067 142.538H67.0667C45.0667 142.538 27.0667 142.938 27.0667 143.472Z" fill="white"/>
</svg>
