<svg version="1.0" xmlns="http://www.w3.org/2000/svg"
 width="1002.000000pt" height="463.000000pt" viewBox="0 0 1002.000000 463.000000"
 preserveAspectRatio="xMidYMid meet">
<g transform="translate(0.000000,463.000000) scale(0.100000,-0.100000)"
fill="#000000" stroke="none">
<path d="M1102 3035 c-35 -8 -88 -25 -118 -39 -61 -28 -174 -104 -174 -117 0
-5 136 -9 301 -9 l302 0 36 33 c21 17 51 42 67 53 l29 21 -40 17 c-129 55
-272 69 -403 41z"/>
<path d="M1724 3035 c-127 -35 -125 -40 17 -36 186 5 329 -26 429 -94 27 -18
73 -44 103 -58 29 -13 70 -39 92 -58 61 -54 26 1 -49 75 -72 71 -164 128 -256
157 -85 28 -262 35 -336 14z"/>
<path d="M1523 2870 c-75 -4 -107 -9 -118 -21 -15 -15 -2 -17 157 -22 184 -6
292 -24 435 -72 166 -56 337 -150 348 -192 3 -13 9 -23 14 -23 18 0 92 -57
117 -90 l26 -35 -6 70 c-7 77 -28 156 -51 192 -9 13 -43 37 -77 54 -202 102
-524 155 -845 139z"/>
<path d="M727 2788 c-33 -45 -68 -114 -60 -122 4 -3 142 -6 309 -6 l302 0 11
31 c6 16 24 50 41 75 16 25 30 47 30 50 0 2 -137 4 -304 4 l-305 0 -24 -32z"/>
<path d="M1311 2651 c-19 -3 -36 -11 -38 -17 -3 -8 43 -14 144 -18 289 -14
555 -88 751 -208 105 -64 142 -98 142 -128 0 -19 11 -36 41 -59 22 -19 49 -46
58 -63 l18 -29 20 48 c26 61 40 107 48 159 l6 41 -139 71 c-265 134 -517 192
-897 205 -66 3 -135 2 -154 -2z"/>
<path d="M630 2584 c-6 -14 -13 -50 -16 -80 l-7 -54 310 0 310 0 7 51 c4 29
10 65 13 80 l6 29 -307 0 -306 0 -10 -26z"/>
<path d="M1240 2426 c0 -10 16 -17 48 -21 240 -29 344 -53 497 -114 166 -66
385 -203 385 -240 0 -10 21 -39 47 -65 45 -45 47 -46 67 -29 53 45 129 140
122 151 -7 12 -122 80 -203 121 -84 42 -201 88 -298 117 -233 71 -665 123
-665 80z"/>
<path d="M615 2343 c4 -31 11 -67 16 -80 l9 -23 305 0 c193 0 305 4 305 10 0
5 -5 41 -12 80 l-12 70 -309 0 -309 0 7 -57z"/>
<path d="M1273 2216 c4 -10 7 -20 7 -22 0 -2 10 -4 23 -4 37 0 167 -30 247
-56 167 -56 399 -196 392 -237 -2 -9 7 -31 20 -48 21 -28 27 -30 65 -25 45 6
183 70 183 85 0 13 -188 122 -310 180 -159 75 -345 122 -548 138 -79 6 -85 5
-79 -11z"/>
<path d="M660 2185 c0 -11 33 -70 62 -112 l29 -43 304 0 c168 0 305 2 305 5 0
2 -11 20 -25 40 -13 21 -32 54 -42 76 l-17 39 -308 0 c-169 0 -308 -2 -308 -5z"/>
<path d="M1404 2001 c11 -12 31 -21 48 -21 43 0 178 -48 216 -76 17 -14 32
-32 32 -41 0 -12 -8 -14 -47 -9 -47 6 -48 6 -17 -8 82 -37 281 -62 272 -33 -8
22 -108 85 -192 120 -78 33 -199 67 -291 83 l-40 7 19 -22z"/>
<path d="M810 1973 c2 -24 153 -114 240 -143 136 -45 291 -37 438 21 46 19 68
39 42 39 -5 0 -34 20 -64 45 l-56 45 -300 0 c-165 0 -300 -3 -300 -7z"/>
</g>
</svg>
