<svg width="830" height="193" viewBox="0 0 830 193" fill="none" xmlns="http://www.w3.org/2000/svg">
<path d="M137.49 192.82C136.52 192.74 135.45 192.96 134.49 192.82C111.43 189.47 113.26 156.94 135.99 156.93C153.82 156.93 160.27 182.08 144.39 190.24C142.03 191.45 139.46 191.24 137.49 192.82Z" fill="white"/>
<path d="M829.65 61.5302H815.67V131.15H829.65V61.5302Z" fill="white"/>
<path d="M735.53 60.7902C763.42 57.0502 779.79 73.2002 777.76 100.85C776.33 120.33 763.15 132.79 743.43 132.76C698.35 132.69 700.26 65.5202 735.53 60.7902ZM738.49 72.7002C718.98 76.6702 718.99 116.87 739.32 120.16C759.65 123.45 765.11 104.7 762.49 88.1402C760.61 76.2702 749.97 70.3702 738.49 72.7102V72.7002Z" fill="white"/>
<path d="M289.3 61.5302V91.3702C291.06 91.7102 291.76 90.4702 292.81 89.4002C300.67 81.3202 307.91 72.6402 315.83 64.5402C316.97 63.3802 317.1 61.5402 317.26 61.5402H337.24L311.43 88.7102L338.24 131.17H320.76L302.27 99.3402C301.28 98.6202 289.3 109.9 289.3 110.78V131.17H275.32V61.5302H289.3Z" fill="white"/>
<path d="M586.95 131.15C580.3 130.48 574 134.04 571.47 126.21C562.26 136.64 539.12 134.21 539 117.75C538.88 99.9402 559.93 103.97 569.28 99.1402C575.68 95.8402 566 85.9202 557.06 90.9502C554.87 92.1802 553.73 95.8602 552.41 96.1702L541 94.3502C541.93 75.3502 581.29 74.1902 583.89 90.9402C585.85 103.55 580.94 118.83 586.95 131.15ZM570.96 107.29C566.57 109.03 558.58 108.94 555 111.78C548.65 116.82 556.7 126.81 565.89 121.62C571.33 118.54 571.39 112.83 570.96 107.29Z" fill="white"/>
<path d="M390.18 131.15C383.53 130.48 377.23 134.04 374.7 126.21C365.49 136.64 342.35 134.21 342.23 117.75C342.11 99.9402 363.16 103.97 372.51 99.1402C378.91 95.8402 369.23 85.9202 360.29 90.9502C358.1 92.1802 356.96 95.8602 355.64 96.1702L344.23 94.3502C345.16 75.3502 384.52 74.1902 387.12 90.9402C389.08 103.55 384.17 118.83 390.18 131.15ZM374.2 107.29C369.81 109.03 361.82 108.94 358.24 111.78C351.89 116.82 359.94 126.81 369.13 121.62C374.57 118.54 374.63 112.83 374.2 107.29Z" fill="white"/>
<path d="M698.81 93.3502L686.48 95.4102C685.31 87.7202 667.5 87.7402 667.06 92.8302C666.62 97.9202 687.24 100.78 691.81 102.81C707.89 109.97 700.5 130.05 684.23 132.02C671.02 133.63 657.07 131.45 652.88 117.22L666.2 115.16C667.43 125.66 689.61 125.31 686.74 115.88C685.2 110.84 656.82 112.66 654.96 97.7102C652.05 74.3202 694.3 72.8902 698.82 93.3302L698.81 93.3502Z" fill="white"/>
<path d="M630.9 131.16V101.82C630.9 101.04 629.29 93.7202 628.81 92.9602C624.11 85.6702 610.93 92.1102 610.93 99.8302V131.16H597.95V80.4302H609.94L610.43 87.3902C617.27 78.0202 634.52 75.9502 641.35 86.4402C641.86 87.2202 643.89 91.4502 643.89 91.8702V131.16H630.9Z" fill="white"/>
<path d="M439.12 80.4302L438.61 91.3502L414.16 120.21L441.13 119.22L441.12 131.16H395.18L395.7 120.23L421.15 91.3702H397.17V80.4302H439.12Z" fill="white"/>
<path d="M501.05 61.5302V73.4702H480.08V131.16H466.09V73.4702H445.12V61.5302H501.05Z" fill="white"/>
<path d="M15.4 78.6602C35.75 75.8602 43.38 104.97 25.32 112.46C-0.759987 123.26 -10.93 82.2702 15.4 78.6602Z" fill="white"/>
<path d="M212.18 78.6802C232.43 76.3102 240.33 104.54 222.07 112.45C196.15 123.67 185.81 81.7602 212.18 78.6802Z" fill="white"/>
<path d="M109.17 83.7602C125.97 99.6802 100.09 126.19 83.51 108.82C67.43 91.9702 92.05 67.5302 109.17 83.7602Z" fill="white"/>
<path d="M134.28 0.0702137C160.49 -1.97979 159.07 40.9702 131.44 35.2302C111.54 31.0902 114.7 1.60021 134.28 0.0702137Z" fill="white"/>
<path d="M132.23 39.8902C155.49 36.0002 161.65 68.4502 140.69 74.1902C116.4 80.8402 108.51 43.8502 132.23 39.8902Z" fill="white"/>
<path d="M130.23 118.45C151.98 114.02 162.06 139.71 145.44 150.5C133.63 158.17 116.87 148.92 117.58 134.77C117.9 128.47 123.8 119.76 130.23 118.45Z" fill="white"/>
<path d="M83.9 70.1402C67.4 54.7502 91.13 27.5802 109.07 44.5802C125.6 60.2502 101.06 86.1402 83.9 70.1402Z" fill="white"/>
<path d="M13.36 39.8802C36.33 35.1502 43.9 66.8802 23.62 73.9502C-0.179985 82.2502 -9.92999 44.6802 13.36 39.8802Z" fill="white"/>
<path d="M171.18 39.8902C198.49 35.3202 199.76 76.1402 174.29 74.8802C152.28 73.7902 152.38 43.0402 171.18 39.8902Z" fill="white"/>
<path d="M12.37 118.45C42.1 112.4 42.96 156.98 14.22 152.94C-4.51999 150.31 -4.05999 121.79 12.37 118.45Z" fill="white"/>
<path d="M52.32 118.46C78.43 113.64 81.89 148.25 61.64 152.6C35.84 158.13 32.39 122.14 52.32 118.46Z" fill="white"/>
<path d="M91.27 118.45C120.75 112.45 121.8 156.75 93.12 152.94C81.37 151.38 75.02 136.95 80.68 126.81C82.21 124.06 88.13 119.09 91.26 118.45H91.27Z" fill="white"/>
<path d="M53.32 39.8902C80.35 35.3102 81.8 75.8702 56.43 74.8802C34.73 74.0302 33.89 43.1802 53.32 39.8902Z" fill="white"/>
<path d="M173.24 78.6502C197.17 76.2502 199.55 113 175.91 114.29C153.56 115.5 150.12 80.9702 173.24 78.6502Z" fill="white"/>
<path d="M134.28 78.6502C160.25 76.0502 159.09 118.68 132.44 113.79C112.5 110.13 113.6 80.7202 134.28 78.6502Z" fill="white"/>
<path d="M170.17 118.45C195.83 113.19 200.37 148.25 179.49 152.59C154.64 157.76 149.72 122.64 170.17 118.45Z" fill="white"/>
<path d="M55.38 78.6502C79.24 76.2602 81.54 113.01 58.05 114.29C35.7 115.5 32.26 80.9702 55.38 78.6502Z" fill="white"/>
<path d="M504.05 80.4302L516.1 80.8602L517.04 86.3902C522.48 78.9102 528.52 77.8602 537.01 81.4302L533.06 92.9302L531.69 93.2402C526.53 88.2702 518.03 94.0302 518.03 99.8202V131.15H504.05V80.4202V80.4302Z" fill="white"/>
<path d="M802.69 131.16H788.71V80.4302C793.15 81.0502 799.23 78.8802 802.69 81.9202V131.16Z" fill="white"/>
<path d="M802.68 61.5302H788.7V73.4702H802.68V61.5302Z" fill="white"/>
</svg>
