<svg width="20" height="20" viewBox="0 0 20 20" fill="none" xmlns="http://www.w3.org/2000/svg">
<path d="M10 2C14.9706 2 19 6.02944 19 11C19 15.9706 14.9706 20 10 20C5.02944 20 1 15.9706 1 11C1 6.02944 5.02944 2 10 2ZM10.0001 6C9.48725 6 9.06459 6.38605 9.00683 6.88338L9.0001 7V10.9863C8.99718 11.2034 9.06447 11.4212 9.20197 11.6028L9.2929 11.7071L11.3983 13.8125C11.7889 14.2031 12.422 14.2031 12.8125 13.8125C13.1731 13.452 13.2008 12.8849 12.8957 12.4925L12.8125 12.3983L11.0001 10.5859V7C11.0001 6.44772 10.5524 6 10.0001 6ZM16.0008 0.606001C17.252 1.3298 18.3599 2.27272 19.2724 3.38217C19.6232 3.80873 19.5618 4.43891 19.1352 4.78972C18.7087 5.14054 18.0785 5.07914 17.7277 4.65258C16.9663 3.72685 16.0421 2.94042 14.9993 2.33721C14.5212 2.06066 14.3579 1.44894 14.6344 0.970881C14.911 0.492811 15.5227 0.329451 16.0008 0.606001ZM5.36563 0.970881C5.64218 1.44894 5.47882 2.06066 5.00075 2.33721C3.95799 2.94042 3.03373 3.72685 2.27237 4.65258C1.92156 5.07914 1.29138 5.14054 0.86482 4.78972C0.43827 4.43891 0.37687 3.80873 0.72769 3.38217C1.64015 2.27272 2.74805 1.3298 3.9993 0.606001C4.47736 0.329451 5.08909 0.492821 5.36563 0.970881Z" fill="#636363"/>
</svg>
