<svg width="1338" height="1142" viewBox="0 0 1338 1142" fill="none" xmlns="http://www.w3.org/2000/svg">
<path d="M1142 0C1235.55 93.5506 1299.26 212.741 1325.07 342.5C1350.88 472.258 1337.63 606.756 1287 728.986C1236.38 851.215 1150.64 955.687 1040.63 1029.19C930.63 1102.69 801.301 1141.92 669 1141.92C536.7 1141.92 407.371 1102.69 297.367 1029.19C187.363 955.687 101.625 851.216 50.9962 728.986C0.366966 606.756 -12.8799 472.258 12.9306 342.5C38.7412 212.741 102.45 93.5506 196 0L669 473L1142 0Z" fill="url(#paint0_linear_394_79)" fill-opacity="0.1" style="mix-blend-mode:plus-darker"/>
<defs>
<linearGradient id="paint0_linear_394_79" x1="669" y1="1419" x2="669" y2="-473" gradientUnits="userSpaceOnUse">
<stop stop-color="#EDF4FF"/>
<stop offset="1" stop-color="#0056D2"/>
</linearGradient>
</defs>
</svg>
