<svg width="48" height="48" viewBox="0 0 48 48" fill="none" xmlns="http://www.w3.org/2000/svg">
<path d="M24 2C11.9 2 2 11.9177 2 24.1326C2 35.1767 10.052 44.3434 20.568 46V30.5382H14.98V24.1326H20.568V19.251C20.568 13.7068 23.846 10.6586 28.884 10.6586C31.282 10.6586 33.79 11.0783 33.79 11.0783V16.5341H31.018C28.29 16.5341 27.432 18.2349 27.432 19.9799V24.1326H33.548L32.558 30.5382H27.432V46C32.616 45.1779 37.3368 42.5222 40.7417 38.5121C44.1467 34.5021 46.0118 29.4019 45.9999 24.1326C45.9999 11.9177 36.1 2 24 2Z" fill="black"/>
</svg>
