<svg width="41" height="48" viewBox="0 0 41 48" fill="none" xmlns="http://www.w3.org/2000/svg">
<path d="M27.0622 43.0252C27.0398 42.9081 26.111 41.083 25.9797 40.8747C25.8996 40.7479 25.8708 40.4225 25.6242 40.6665C25.4833 40.8032 25.2207 43.0382 25.0285 43.5587C24.705 44.4436 23.9813 44.6096 24.5962 45.6929C24.7115 45.8979 26.2967 47.3391 26.1046 47.4953C25.5217 47.5115 25.2559 46.9845 24.7243 46.7047C23.456 46.0345 22.4632 46.3208 21.1405 46.6852C21.0348 45.4782 22.3992 45.6669 23.219 45.3806C23.3215 45.2309 22.0052 42.381 21.781 42.0492C21.1277 41.0732 18.0692 37.7841 17.0668 37.4034C16.2405 37.0911 15.0908 37.3481 14.2164 37.0456C13.134 36.6682 13.0155 35.7605 11.286 35.6304C9.71676 35.5133 9.83526 35.741 9.19794 37.0879L9.05062 38.0639C8.13467 37.9435 7.48453 35.6629 7.59022 34.9732C7.64787 34.5991 8.25637 32.8846 8.48375 32.6113C9.00578 31.9834 11.1515 30.1095 11.8625 29.5369C13.118 28.5349 16.4135 27.0644 17.2045 26.0168C17.8194 25.2002 19.8563 20.6391 20.2534 19.5167C21.0284 17.3109 21.1565 14.692 21.9604 12.4667C23.9973 9.96167 27.0077 7.77219 28.9805 5.2834C30.2232 3.71855 31.0559 1.61365 32.2664 0L30.9053 4.87673C31.1872 4.93529 31.2993 4.73033 31.4658 4.55465C32.2504 3.73481 32.6988 2.50506 33.6244 1.78607L32.5066 6.01539C32.8109 6.36025 34.4426 4.49609 34.6668 4.31065C34.8653 4.14473 34.9791 3.94953 34.9086 4.31065C34.8189 4.78238 33.16 7.834 33.3073 7.96739C33.8229 8.2244 36.3946 6.36675 36.5067 6.50339C36.5548 7.10851 34.5211 9.21341 34.9086 9.59405L37.9511 8.94664C37.4291 9.97469 35.8662 10.4269 35.7093 11.546H39.3122C39.4563 11.546 39.8919 11.8486 40.1929 11.7087C40.4876 11.9495 36.8622 12.8994 36.6252 13.0426C36.4202 13.1662 36.2953 13.2085 36.3498 13.4948L40.3531 14.7148C39.2962 15.2223 38.0216 15.1117 36.9038 15.4435C36.6701 15.5118 36.6252 15.3557 36.6733 15.7721C37.6212 16.169 38.6397 16.4098 39.594 16.7936C39.9399 16.9335 40.4972 17.0539 40.6765 17.402L36.2697 18.0494L31.7989 30.4251L25.1918 32.9854L24.8267 33.5027C26.5914 34.5666 28.5674 35.6792 30.2264 36.8829C33.2625 39.0887 38.1913 44.3233 40.6029 47.3261C40.763 47.5245 40.9135 47.736 41 47.98C40.6445 48.2728 36.843 45.257 36.1192 45.052C35.8021 45.2505 35.9751 45.322 35.9815 45.501C35.9975 46.0996 35.9815 46.7568 36.1961 47.3261C35.8342 47.6156 34.5179 45.2667 34.0311 45.052C33.7909 44.9479 33.8133 45.1203 33.7557 45.2537C33.6244 45.5628 33.4866 47.1797 33.2336 47.1634L31.3089 44.564C30.979 44.4924 31.0847 44.6974 31.0238 44.9186C30.8765 45.4587 30.8413 46.0443 30.7452 46.5941C30.7068 46.8218 30.8957 47.0723 30.5114 47.0008L28.9069 44.2387C28.34 44.0988 27.8244 46.8543 27.0686 46.8413C26.9149 45.7287 27.2768 44.0532 27.0686 43.0187L27.0622 43.0252Z" fill="white"/>
<path d="M4.884 13.5013C5.02812 13.4883 5.44126 13.3744 5.68146 13.3321C5.94087 13.2833 6.44185 13.2008 5.92486 13.0165L0.320262 10.8173C1.67497 10.8108 3.06811 11.3183 4.40681 11.3866C4.73989 11.4029 4.86799 11.481 4.80394 11.0645L0 8.6213C1.64935 9.18738 5.64943 9.21992 6.96571 10.082C7.74395 10.5928 11.5519 14.1617 12.1732 14.9262C12.6151 15.4728 16.0996 21.9925 16.2597 22.6041C16.3814 23.0726 16.6697 25.8119 16.5063 26.0689L11.8049 28.9871L11.2092 29.114V24.8033C11.2092 23.2222 9.82886 21.742 9.42212 20.1934C8.85206 19.8323 5.8512 21.1759 4.96407 20.9774L7.69591 18.4691L7.84323 17.89L4.00328 19.1881C4.95766 18.2479 6.25793 17.607 7.20911 16.67C7.38205 16.5009 7.58382 16.3837 7.52617 16.0974L1.92478 16.2569L5.7327 15.1637C5.89603 15.1214 6.41486 15.2028 6.24512 14.8774C6.07538 14.5521 2.197 13.9958 1.51164 13.8234C1.23942 13.755 1.04726 13.986 1.12412 13.4948C2.33792 13.4069 3.69263 13.6119 4.88721 13.4948L4.884 13.5013Z" fill="white"/>
<path d="M19.6449 40.3933C19.805 40.5331 20.9356 41.8019 21.0476 41.9744C21.1597 42.1468 21.2975 42.3192 21.291 42.5372C21.2878 42.6348 20.3783 44.1248 20.2918 44.1964C19.4463 44.9024 18.0596 43.8776 19.2125 46.1939C19.0844 46.3273 17.4511 45.2928 17.0412 45.2277C16.6312 45.1626 15.0587 45.0488 14.6616 45.065C14.2645 45.0813 13.6912 45.4229 13.2909 45.5433C13.0347 45.27 14.4791 44.2712 14.7545 44.1866C15.6608 43.9068 16.7625 44.1834 17.6945 44.0793C19.1837 43.9133 19.5072 41.3985 19.0524 40.1753C19.2766 40.146 19.4784 40.2501 19.6417 40.39L19.6449 40.3933Z" fill="white"/>
</svg>
