<svg width="16" height="16" viewBox="0 0 16 16" fill="none" xmlns="http://www.w3.org/2000/svg">
<path d="M10.1736 10.7728L9.80454 11.1613C9.80454 11.1613 8.92737 12.0847 6.53309 9.56428C4.13883 7.04393 5.01599 6.12057 5.01599 6.12057L5.24838 5.87594C5.82088 5.27331 5.87485 4.3058 5.37536 3.59948L4.35366 2.15462C3.73546 1.28041 2.5409 1.16492 1.83233 1.9108L0.560567 3.24953C0.209228 3.61937 -0.0262129 4.0988 0.00234015 4.63064C0.0753838 5.99126 0.656873 8.91869 3.90162 12.3343C7.34253 15.9564 10.5711 16.1004 11.8914 15.9701C12.309 15.9289 12.6722 15.7037 12.9648 15.3957L14.1159 14.184C14.8928 13.3662 14.6737 11.9641 13.6796 11.392L12.1316 10.5011C11.4789 10.1255 10.6837 10.2358 10.1736 10.7728Z" fill="black"/>
<path d="M8.31268 0.510244C8.36632 0.178992 8.67948 -0.0457133 9.01079 0.00790896C9.03129 0.0118381 9.09732 0.0241682 9.13184 0.0318644C9.20103 0.0472649 9.29745 0.0709611 9.41769 0.105983C9.65817 0.17601 9.9941 0.29138 10.3973 0.476195C11.2045 0.846228 12.2787 1.49352 13.3935 2.60809C14.5082 3.72266 15.1556 4.79674 15.5256 5.60385C15.7105 6.00699 15.8259 6.34287 15.8959 6.58329C15.9309 6.70353 15.9547 6.79995 15.9701 6.86907C15.9778 6.90364 15.9834 6.9314 15.9873 6.9519L15.992 6.97718C16.0456 7.3084 15.8229 7.63456 15.4916 7.68819C15.1613 7.74165 14.8501 7.51798 14.7951 7.18834C14.7934 7.17943 14.7887 7.15569 14.7838 7.13325C14.7737 7.08837 14.7565 7.01722 14.7291 6.92312C14.6742 6.7349 14.579 6.45514 14.4209 6.11029C14.105 5.42143 13.5371 4.47019 12.5341 3.46736C11.5311 2.46454 10.5797 1.89665 9.89079 1.58083C9.54587 1.42273 9.2661 1.32752 9.07779 1.27269C8.98372 1.24528 8.86543 1.21813 8.82054 1.20814C8.49077 1.15319 8.2592 0.840549 8.31268 0.510244Z" fill="black"/>
<path fill-rule="evenodd" clip-rule="evenodd" d="M8.496 3.30475C8.58821 2.98209 8.92454 2.79526 9.24726 2.88745L9.08035 3.47167C9.24726 2.88745 9.24726 2.88745 9.24726 2.88745L9.24847 2.88779L9.24969 2.88814L9.25236 2.88893L9.25868 2.89081L9.27473 2.8958C9.28688 2.8997 9.30219 2.90479 9.32034 2.91125C9.35672 2.92416 9.40485 2.94252 9.46384 2.9678C9.58189 3.01838 9.74313 3.09649 9.94132 3.21373C10.3378 3.4484 10.8793 3.83822 11.5153 4.47415C12.1513 5.11008 12.5412 5.65139 12.7759 6.04792C12.8931 6.24601 12.9712 6.40727 13.0219 6.5253C13.0472 6.58427 13.0655 6.63236 13.0784 6.66875C13.0849 6.68693 13.0899 6.70219 13.0939 6.71441L13.0988 6.73044L13.1007 6.73672L13.1015 6.73941L13.1018 6.74066C13.1018 6.74066 13.1022 6.74183 12.5179 6.90875L13.1022 6.74183C13.1945 7.06448 13.0075 7.40075 12.6849 7.49295C12.3649 7.58433 12.0315 7.40148 11.936 7.08386L11.933 7.07512C11.9287 7.06295 11.9198 7.03898 11.9048 7.00399C11.8748 6.93404 11.8204 6.81962 11.73 6.66684C11.5493 6.36164 11.223 5.90047 10.6559 5.33341C10.0888 4.76637 9.62751 4.44013 9.32229 4.25949C9.16948 4.16907 9.05507 4.11471 8.98506 4.08473C8.95006 4.06974 8.92608 4.06079 8.91392 4.05648L8.90517 4.05349C8.58756 3.95799 8.4046 3.62466 8.496 3.30475Z" fill="black"/>
</svg>
