<svg width="36" height="36" viewBox="0 0 36 36" fill="none" xmlns="http://www.w3.org/2000/svg">
<path d="M36 18C36 27.9411 27.9411 36 18 36C8.05887 36 0 27.9411 0 18C0 8.05887 8.05887 0 18 0C27.9411 0 36 8.05887 36 18Z" fill="#1E1E1E"/>
<path d="M17.25 9.75C17.25 9.33579 17.5858 9 18 9C18.4142 9 18.75 9.33579 18.75 9.75V26.25C18.75 26.6642 18.4142 27 18 27C17.5858 27 17.25 26.6642 17.25 26.25V9.75Z" fill="white"/>
<path d="M9.75 18.75C9.33579 18.75 9 18.4142 9 18C9 17.5858 9.33579 17.25 9.75 17.25H26.25C26.6642 17.25 27 17.5858 27 18C27 18.4142 26.6642 18.75 26.25 18.75H9.75Z" fill="white"/>
</svg>
